<mxfile host="drawio-plugin" modified="2021-10-18T12:58:41.095Z" agent="5.0 (Windows NT 6.2; Win64; x64) AppleWebKit/537.36 (KHTML, like Gecko) Chrome/89.0.4389.114 Safari/537.36" etag="qzO3-rY7WeqCo9U6Apxa" version="14.7.4" type="embed"><diagram id="Nfua8skfJUFJd0ukmEax" name="Page-1"><mxGraphModel dx="1490" dy="743" grid="1" gridSize="10" guides="1" tooltips="1" connect="1" arrows="1" fold="1" page="1" pageScale="1" pageWidth="850" pageHeight="1100" math="0" shadow="0"><root><mxCell id="0"/><mxCell id="1" parent="0"/><mxCell id="3" value="&lt;span style=&quot;color: rgba(0 , 0 , 0 , 0) ; font-family: monospace ; font-size: 0px&quot;&gt;%3CmxGraphModel%3E%3Croot%3E%3CmxCell%20id%3D%220%22%2F%3E%3CmxCell%20id%3D%221%22%20parent%3D%220%22%2F%3E%3CmxCell%20id%3D%222%22%20value%3D%22Food%22%20style%3D%22rounded%3D0%3BwhiteSpace%3Dwrap%3Bhtml%3D1%3BfillColor%3D%2399FFCC%3B%22%20vertex%3D%221%22%20parent%3D%221%22%3E%3CmxGeometry%20x%3D%22105%22%20y%3D%22320%22%20width%3D%22120%22%20height%3D%2230%22%20as%3D%22geometry%22%2F%3E%3C%2FmxCell%3E%3C%2Froot%3E%3C%2FmxGraphModel%3E&lt;/span&gt;" style="rounded=0;whiteSpace=wrap;html=1;" parent="1" vertex="1"><mxGeometry x="80" y="70" width="350" height="700" as="geometry"/></mxCell><mxCell id="4" value="Get involved" style="rounded=0;whiteSpace=wrap;html=1;" parent="1" vertex="1"><mxGeometry x="85" y="90" width="340" height="20" as="geometry"/></mxCell><mxCell id="5" value="First name" style="rounded=0;whiteSpace=wrap;html=1;" parent="1" vertex="1"><mxGeometry x="101" y="130" width="139" height="20" as="geometry"/></mxCell><mxCell id="6" value="Last name" style="rounded=0;whiteSpace=wrap;html=1;" parent="1" vertex="1"><mxGeometry x="260" y="130" width="139" height="20" as="geometry"/></mxCell><mxCell id="7" value="Email" style="rounded=0;whiteSpace=wrap;html=1;fillColor=#fff2cc;strokeColor=#d6b656;" parent="1" vertex="1"><mxGeometry x="100" y="160" width="139" height="20" as="geometry"/></mxCell><mxCell id="8" value="Phone number" style="rounded=0;whiteSpace=wrap;html=1;fillColor=#fff2cc;strokeColor=#d6b656;" parent="1" vertex="1"><mxGeometry x="260" y="160" width="139" height="20" as="geometry"/></mxCell><mxCell id="9" value="What do you want to donate?&lt;br&gt;Choose from list&amp;nbsp;" style="rounded=0;whiteSpace=wrap;html=1;" parent="1" vertex="1"><mxGeometry x="100" y="200" width="300" height="60" as="geometry"/></mxCell><mxCell id="10" value="First name" style="rounded=0;whiteSpace=wrap;html=1;fillColor=#fff2cc;strokeColor=#d6b656;" parent="1" vertex="1"><mxGeometry x="101" y="130" width="139" height="20" as="geometry"/></mxCell><mxCell id="11" value="Last name" style="rounded=0;whiteSpace=wrap;html=1;fillColor=#fff2cc;strokeColor=#d6b656;" parent="1" vertex="1"><mxGeometry x="260" y="130" width="139" height="20" as="geometry"/></mxCell><mxCell id="25" value="redirect to a pay page" style="text;html=1;align=center;verticalAlign=middle;resizable=0;points=[];autosize=1;strokeColor=none;" parent="1" vertex="1"><mxGeometry x="350" y="350" width="130" height="20" as="geometry"/></mxCell><mxCell id="26" value="I want to donate&amp;nbsp;" style="html=1;shadow=0;dashed=0;shape=mxgraph.bootstrap.rrect;rSize=5;strokeColor=#d79b00;strokeWidth=1;fillColor=#ffe6cc;whiteSpace=wrap;align=left;verticalAlign=middle;fontStyle=0;fontSize=14;spacingLeft=10;" parent="1" vertex="1"><mxGeometry x="120" y="290" width="140" height="40" as="geometry"/></mxCell><mxCell id="27" value="" style="shape=triangle;direction=south;fillColor=#ffffff;strokeColor=none;perimeter=none;" parent="26" vertex="1"><mxGeometry x="1" y="0.5" width="10" height="5" relative="1" as="geometry"><mxPoint x="-17" y="-2.5" as="offset"/></mxGeometry></mxCell><mxCell id="28" value="" style="html=1;shadow=0;dashed=0;shape=mxgraph.bootstrap.rrect;rSize=5;fillColor=#ffffff;strokeColor=#999999;" parent="1" vertex="1"><mxGeometry x="120" y="333" width="210" height="207" as="geometry"/></mxCell><mxCell id="29" value="Money" style="fillColor=none;strokeColor=none;align=left;spacing=20;fontSize=14;" parent="28" vertex="1"><mxGeometry width="210" height="30" relative="1" as="geometry"><mxPoint y="10" as="offset"/></mxGeometry></mxCell><mxCell id="30" value="Food" style="fillColor=none;strokeColor=none;align=left;spacing=20;fontSize=14;" parent="28" vertex="1"><mxGeometry width="210" height="30" relative="1" as="geometry"><mxPoint y="40" as="offset"/></mxGeometry></mxCell><mxCell id="31" value="Toys" style="strokeColor=none;align=left;spacing=20;fontSize=14;fillColor=#66B2FF;" parent="28" vertex="1"><mxGeometry width="210" height="30" relative="1" as="geometry"><mxPoint y="70" as="offset"/></mxGeometry></mxCell><mxCell id="45" value="Drugs" style="fillColor=none;strokeColor=none;align=left;spacing=20;fontSize=14;" parent="28" vertex="1"><mxGeometry y="97" width="210" height="30" as="geometry"/></mxCell><mxCell id="46" value="Others" style="strokeColor=none;align=left;spacing=20;fontSize=14;fillColor=none;" parent="28" vertex="1"><mxGeometry y="127" width="210" height="30" as="geometry"/></mxCell><mxCell id="50" value="Submit" style="rounded=0;whiteSpace=wrap;html=1;fillColor=#e1d5e7;strokeColor=#9673a6;" parent="1" vertex="1"><mxGeometry x="190" y="690" width="120" height="30" as="geometry"/></mxCell><mxCell id="51" value="Details&amp;nbsp;" style="rounded=0;whiteSpace=wrap;html=1;align=center;fontColor=#E6E6E6;" parent="1" vertex="1"><mxGeometry x="105" y="580" width="295" height="100" as="geometry"/></mxCell><mxCell id="53" value="if the user choose one of the option {food, toys, drugs,others} we must have care to set a final address" style="text;html=1;align=center;verticalAlign=middle;resizable=0;points=[];autosize=1;strokeColor=none;" parent="1" vertex="1"><mxGeometry x="425" y="550" width="560" height="20" as="geometry"/></mxCell><mxCell id="55" value="after submit we will send you a message of confirmation" style="text;html=1;align=center;verticalAlign=middle;resizable=0;points=[];autosize=1;strokeColor=none;" parent="1" vertex="1"><mxGeometry x="320" y="695" width="310" height="20" as="geometry"/></mxCell><mxCell id="56" value="Address - disabled input" style="rounded=0;whiteSpace=wrap;html=1;align=left;" parent="1" vertex="1"><mxGeometry x="105" y="550" width="295" height="20" as="geometry"/></mxCell><mxCell id="57" value="&lt;font color=&quot;#ff3333&quot;&gt;donation page&lt;/font&gt;" style="text;html=1;align=center;verticalAlign=middle;resizable=0;points=[];autosize=1;strokeColor=none;" parent="1" vertex="1"><mxGeometry x="5" y="20" width="90" height="20" as="geometry"/></mxCell><mxCell id="58" value="donation form" style="text;html=1;align=center;verticalAlign=middle;resizable=0;points=[];autosize=1;strokeColor=none;" parent="1" vertex="1"><mxGeometry x="80" y="70" width="90" height="20" as="geometry"/></mxCell><mxCell id="61" value="logo" style="ellipse;whiteSpace=wrap;html=1;aspect=fixed;align=center;" parent="1" vertex="1"><mxGeometry x="235" y="60" width="30" height="30" as="geometry"/></mxCell><mxCell id="62" value="&lt;font color=&quot;#0d0d0d&quot;&gt;input uri&amp;nbsp; auto fill&lt;/font&gt;" style="text;html=1;align=center;verticalAlign=middle;resizable=0;points=[];autosize=1;strokeColor=none;fontColor=#F2F2F2;" parent="1" vertex="1"><mxGeometry x="410" y="140" width="100" height="20" as="geometry"/></mxCell><mxCell id="63" value="Cancel" style="rounded=0;whiteSpace=wrap;html=1;fillColor=#dae8fc;strokeColor=#6c8ebf;" vertex="1" parent="1"><mxGeometry x="190" y="730" width="120" height="30" as="geometry"/></mxCell></root></mxGraphModel></diagram></mxfile>